<?xml version="1.0" encoding="UTF-8"?>
<svg id="Layer_9" data-name="Layer 9" xmlns="http://www.w3.org/2000/svg" xmlns:xlink="http://www.w3.org/1999/xlink" viewBox="0 0 1348.51 1420.64">
  <defs>
    <style>
      .cls-1 {
        fill: none;
        stroke: #6e5ca7;
        stroke-linecap: round;
      }

      .cls-1, .cls-2, .cls-3, .cls-4 {
        stroke-miterlimit: 10;
        stroke-width: 3px;
      }

      .cls-5 {
        fill: url(#New_Gradient_Swatch);
      }

      .cls-6 {
        fill: url(#linear-gradient);
      }

      .cls-7 {
        fill: #eaa3c8;
      }

      .cls-8 {
        fill: #fff;
      }

      .cls-9 {
        fill: #919fc7;
      }

      .cls-10, .cls-2 {
        fill: #8ec741;
      }

      .cls-11 {
        fill: #d0e28d;
      }

      .cls-12 {
        fill: #211f1f;
      }

      .cls-13 {
        fill: #0d302e;
      }

      .cls-14 {
        fill: #89aedc;
      }

      .cls-15 {
        fill: #3777bc;
      }

      .cls-16 {
        fill: #4c61ac;
      }

      .cls-17 {
        fill: #4f888e;
      }

      .cls-18 {
        fill: url(#New_Gradient_Swatch-2);
      }

      .cls-2, .cls-3, .cls-4 {
        stroke: #231f20;
      }

      .cls-3 {
        fill: #d27a28;
      }

      .cls-4 {
        fill: #c7494e;
      }
    </style>
    <linearGradient id="linear-gradient" x1="409.01" y1="557.18" x2="973.8" y2="557.18" gradientUnits="userSpaceOnUse">
      <stop offset="0" stop-color="#8ec741"/>
      <stop offset="1" stop-color="#e8ea82"/>
    </linearGradient>
    <linearGradient id="New_Gradient_Swatch" data-name="New Gradient Swatch" x1="781.45" y1="330.82" x2="1024.6" y2="330.82" gradientUnits="userSpaceOnUse">
      <stop offset="0" stop-color="#8ec741"/>
      <stop offset="1" stop-color="#e8ea82"/>
    </linearGradient>
    <linearGradient id="New_Gradient_Swatch-2" data-name="New Gradient Swatch" x1="318.31" y1="1018.8" x2="1120.69" y2="1018.8" xlink:href="#New_Gradient_Swatch"/>
  </defs>
  <path d="m691.12,679.37s81.29-13.44,94.42,129.32c0,0,20.29-24.03,65.04-33,44.75-8.96-2.09-46.92,109.2-45.11,96.67.64,108.18,45.12,120.54,64.66,11.74,18.57,7.16,39.69-3.58,65.94-10.74,26.25-23.67,56.34-101.64,65.3,0,0-22.36,47.35-85.37,93.04,0,0-10.51,4.27,10.58,46.52,8.08,13.75,5.85,29.16.84,42.09-1.92,4.96,4.17,8.98,7.47,4.95,11.72-14.28,28.85-37.09,53.75-73.51,70.81-122.06,134.86-100.3,134.86-100.3,0,0-28.64,12.8-23.87,19.21,0,0,52.51-1.71,58.88,15.36,0,0-32.22,7.68-45.35,49.94,0,0,17.9-.85,21.08,8.11,0,0-19.89,7.68-38.19,69.99-18.3,62.31-15.91,110.11-196.52,187.79-19.89,10.67-2.39,18.78-16.31,23.05s-17.5-13.23-23.87-12.8-5.97,20.49-17.11,19.21-.8-11.39-17.9-11.39-5.57,20.91-17.9,20.06c-12.33-.85-8.75-11.39-24.27-10.11-15.51,1.28,1.59,28.3-14.72,23.61-16.31-4.69-5.97-16.65-44.16-13.23-38.19,3.41-103.83,20.22-173.05,4.85-69.22-15.36-119.34-65.43-119.34-65.43,0,0-97.86-22.19-101.84-48.65-3.98-26.46-7.68-120.92,41.65-175.55,49.33-54.63,68.42-135.16,67.63-156.5-.8-21.34,63.77-243.27,279.05-207.42Z"/>
  <g>
    <path d="m968.44,603.98c-.45.22-.7.34-.7.34,0,0,.24-.09.7-.34Z"/>
    <path d="m1091.05,414.76c-5.56-3.66-15.74-8.44-18.09-7.32-3.05-1.38-6.61-4.32-11.42-6.59,0,0,6.23-26.07-12.27-38.6-14.32-13.13-35.8-25.06-35.8-25.06,0,0,.99-12.13-.4-12.93l24.07-27.45-3.38-4.57,50.62-52.44-67.63,3.7s19.39-42.37,10.74-45.05c-8.65-2.69-18.2-34.91-281.35,127.99-28.05,10.94-37.59-4.97-151.37,36-58.08,26.35-28.24-146.69-74.19-210.84l-91.12,98.13-128.47-70.09,36.4,140.23s-45.35,7.96-46.94,40.18c0,0-27.85-5.17-25.86,19.09l-26.36,1.72c-9.75.64-17.87,7.7-19.83,17.28-5.8,28.25-15.09,85.36-.35,105.12,11.93,13.53,13.92,8.75,13.92,8.75,0,0-14.32,70.81,4.77,95.47,19.09,24.66,25.46,23.07,25.46,23.07,0,0-17.5,75.58,58.08,67.63,75.58-7.96,90.7-10.34,90.7-10.34l-47.74,50.12,124.06-24.38c7.6-1.49,15.03,3.26,16.87,10.78l21.38,87.59,56.71-51.71c3.51-3.2,9.02-2.69,11.88,1.1l26.49,35.1,48.13-70.41s57.38-24.96,138.54-22.97c35.8-1.99,17.35-18.48,61.51-45.54l39.78,51.25,7.61-79.01h67.83l-43.33-59.83,6.25-6.4s11.93,10.94,26.84,16.75c26.75,10.09,49.71-59.29,50.84-62.31,0,0,15.69,9.35,20.86-11.94l7.01,2.24s9.45,5.07,15.81-11.64c6.36-16.71,31.76-75.96,22.72-81.9Z"/>
  </g>
  <path class="cls-9" d="m953.51,557.18l18.5-17.91-12.23-7.31,71.35-150.53c3.15-6.23,10.38-5.32,15.77-.88,4.86,4,11.15,5.43,7.73,16.09-6.95,21.7-41.89,167.73-73.05,173.92-16.19,3.21-28.07-13.37-28.07-13.37Z"/>
  <path class="cls-6" d="m409.01,715.7l48.13-43.57s84.34-9.74,85.93-32.81,33.02-209.64,14.72-252.61c0,0,189.36-75.19,255.79-41.37,66.43,33.81,72,73.2,68.82,83.54s22.28,90.7,19.89,112.58c0,0,6.76-.99,5.97-20.09l52.66,20.29-33.36,27.85,46.25,55.1s-65.34-7.46-65.34-6.56-5.67,68.02-5.67,68.02l-25.96-36.7s37.44-32.22,19.09-53.55c-6.86-6.86,2.54-20.59,2.54-20.59,0,0-9.3-8.4-8.7,9,1.39,15.51,13.72,42.76-31.43,70.61-25.06,14.22-19.99,32.1-50.72,38.36-30.73,6.27-78.44-4.43-160.39,19.84,0,0,12.93-1.19,12.93,1.19s-35.93,55.37-35.93,55.37l-38.39-40.78-50.32,48.93-22.28-80.75-104.23,18.7Z"/>
  <path class="cls-5" d="m796.08,332.22s-24.66-2.39-9.95-17.9c14.72-15.51,155.54-112.18,235.1-114.97,25.06,0-97.16,215.21-126.4,262.95,0,0-7.26-29.84-2.49-42.96s-31.58-85.24-96.27-87.12Z"/>
  <path class="cls-10" d="m436.16,253.6l18.8,15.66c5.57-5.97,32.73-42.05,46.26-44.04,8.79-.86,8.83,105.94,8.83,105.94,0,0,35.76,6.12,44.99,46.12l16.28-6.09s-18.09-3.38-20.08-22.87c-1.99-19.49-14.73-188.26-32.03-183.19-7.36,1.72-83.04,88.46-83.04,88.46Z"/>
  <path class="cls-18" d="m510.06,740.83s-3.18-6.83-25.86,20.06c-22.67,26.89-45.15,49.08-71.01,181.39,0,0-15.32,49.51-42.76,89.2-27.45,39.69-50.92,37.56-52.11,148.95,0,45.45,47.14,76.82,72.2,67.86,25.06-8.96-3.88-12.16,11.34-71.38,7.16-27.21,13.43-35.85,13.43-35.85,0,0-27.35,96.99,19.19,127.29,46.54,30.3,84.93,72.48,251.41,51.35,49.23-6.72,48.04,10.22,56.39,6.38,8.35-3.84-.3-26.57,27.45-13.12s4.48-8,23.87-15.04c19.39-7.04,16.11,16.32,25.36,9.92,9.25-6.4,0-30.09,28.64-9.6,20.88,15.68,0-9.6,24.47-15.68,24.47-6.08,160.32-70.1,175.03-126.44,14.72-56.34,29.44-115.23,52.11-123.34,0,0-31.43,1.71-20.69-17.5,10.74-19.21,37-43.11,42.17-43.11,0,0-21.08-9.39-67.63-4.27-11.14,1.28,24.27-24.75,24.27-24.75,0,0-53.31-6.83-124.12,128.89-44.95,87.92-196.12,153.65-270.91,157.91-74.79,4.27-194.55-31.58-184.7-79.6,0,0,54.12,80.45,193.79,64.23s204.52-112.25,196.17-145.54c-8.35-33.29-24.66-73.41-101.84-93.04-22.67-4.27,9.95-14.51,46.15,8.54,36.2,23.05,76.78,24.33,121.33-38.41,38.59-53.99,44.55-52.07,44.55-52.07,0,0-16.51,22.83-13.53,23.05,2.98.21,70.81-11.95,85.13-76.82s-10.74-61.46-53.7-88.35c-42.96-26.89-105.42-13.66-111.39-6.61s-31.63,36.17-45.95,36.6c-14.32.43-63.05,29.77-62.65,31.48s34.01,30.62,33.71,47.91c0,0-25.36-31.69-37.29-39.37,0,0,1.79,23.05-5.07,24.97,0,0-16.81-136.79-53.8-135.93-37,.85-69.22,20.91-69.22,20.91l-40.11,57.43-30.78-23.17c-2.3-3.27-6.73-3.71-9.55-.95l-57.99,46.79-15.51-71.14Z"/>
  <polyline class="cls-10" points="889.61 458.79 895.93 475.28 896.33 466.18 889.61 458.79"/>
  <path d="m813.58,68.67s244.28,137.64,275.91,159.72c0,0,8.13,11.54-13.95,32.42-22.08,20.88-41.17,35.7-41.17,35.7l-2.98-3.38,48.3-53.07s-229.7-136.18-273.26-148.71c-43.56-12.53-463.05,27.65-463.05,27.65l31.03-13.53s324.61-40.97,439.18-36.8Z"/>
  <path class="cls-9" d="m238.75,519.58s-21.08,75.58,22.28,89.11c43.36,13.53,200.49,12.33,216.01-19.09,12.81-25.94,11.06-158.84,9.32-204.42-.33-8.67-7.3-15.6-15.97-15.92l-73.95-2.43,1.93,14.09s55.71-.96,57.2,10.97c1.63,13.02,12.83,95.77,9.55,102.63s-10.44,16.41-20.59,16.41c0,0,4.77,46.25-4.48,48.93-9.25,2.69-152.16,11.64-167.38,1.49s-13.13-34.91-13.13-34.91l-20.79-6.86Z"/>
  <path class="cls-9" d="m325.2,368.32v8.98l-50.15,1.47v-4.98c0-3.81,3.15-6.86,6.95-6.74l43.2,1.28Z"/>
  <ellipse cx="863.27" cy="622.4" rx="7.42" ry="3.92" transform="translate(-195.54 515.02) rotate(-30)"/>
  <path d="m550.78,576.47c-.37,14.44,3.43,56.09,8.2,57.28s164.69-7.96,168.67-6.76c0,0-15.91-196.12-29.44-197.71-13.53-1.59-136.32,45.78-136.32,45.78,0,0-5.15,57.82-11.12,101.4Z"/>
  <path class="cls-7" d="m499.71,328.04s1.59-93.68-2.78-94.48l-40.18,37.94s3.73,4.92,2.54,6.12l-151.71-88.61,41.51,126.59s84.2-11.24,150.63,12.45Z"/>
  <path class="cls-8" d="m627.4,551.11c14.9.34,65.14-1.01,81.91-5.33,2.8-.72,5.59,1.15,5.9,4.03l7.47,69.63-90.1,5.37-8.66-69.83c-.26-2.08,1.38-3.91,3.48-3.86Z"/>
  <path class="cls-8" d="m561.57,485.77l47.88-15.28c1.63-.52,3.3.65,3.36,2.35.41,11.48,4.3,52.5,6.46,69.6.53,4.19-2.48,7.99-6.67,8.46l-55.8,6.27,4.77-71.41Z"/>
  <path class="cls-16" d="m276.94,635.74s-7.16,38.97,34.61,37.19,204.47-18.49,214.02-37.19c9.55-18.7,45.75-264.54,6.36-286.82-40.24-22.76-189.75-36.2-228.54-2.98-7.16,6.86-6.71,13.13-6.71,13.13,0,0,200.05-8.95,200.64,5.97.6,14.92,16.11,223.17-19.69,246.44-35.8,23.27-166.28,30.03-200.69,24.27Z"/>
  <path class="cls-16" d="m898.71,481.79s-3.98,23.47,13.53,29.44,38.05,14.07,38.05,14.07c0,0,47.78-106.74,55.73-124.24s22.53-39.66-2.54-50.79c-25.06-11.14-29.69-8.11-29.69-8.11,0,0-70.7,130.79-75.09,139.63Z"/>
  <path class="cls-17" d="m1029.19,510.76l31.17-102.37s8.53,4.84,8.22,6.37c-2.83,13.85-24.07,90.55-28.39,94.01-3.14,2.51-5.01,4.02-10.99,1.99Z"/>
  <path class="cls-17" d="m271.25,530.93l.6,11.86c.29,5.7,5.04,10.14,10.74,10.04l140.19-2.34c5.77-.1,10.4-4.8,10.4-10.57v-12.51c0-6.02-5.02-10.83-11.04-10.57l-143.77,6.28c-4.13.18-7.32,3.69-7.11,7.82Z"/>
  <path class="cls-17" d="m427.41,501.88l-171.88,4.88c-16.88.69-30.67-13.31-29.72-30.18l3.43-60.78c.87-15.35,13.71-27.26,29.08-26.97l160.62,3c14.35.27,26.28,11.13,27.88,25.39l7.82,52.91c1.85,16.48-10.66,31.08-27.24,31.76Z"/>
  <path class="cls-17" d="m1076.98,419.32s-3.84-2.74-5.87,6.43c-2.71,11.38-20.13,69.79-18.6,69.79s8.98,4.45,12.19-2.31,24.82-64.84,21.52-67.65-9.24-6.27-9.24-6.27Z"/>
  <path class="cls-2" d="m284.43,448.21c-.2,12.67-11.7,21.24-23.82,19.63-10.44-1.38-18.07-10.08-18.27-19.73s7.3-18.91,18.07-20.34c12.56-1.66,24.22,7.48,24.02,20.44Z"/>
  <path class="cls-3" d="m355.14,448.21c-.2,12.67-11.7,21.24-23.82,19.63-10.44-1.38-18.07-10.08-18.27-19.73s7.3-18.91,18.07-20.34c12.56-1.66,24.22,7.48,24.02,20.44Z"/>
  <path class="cls-4" d="m422.12,448.21c-.2,12.67-11.7,21.24-23.82,19.63-10.44-1.38-18.07-10.08-18.27-19.73s7.3-18.91,18.07-20.34c12.56-1.66,24.22,7.48,24.02,20.44Z"/>
  <polygon class="cls-13" points="619.33 462.3 691.41 439.62 712.14 534.83 628.6 540.47 619.33 462.3"/>
  <path d="m651.8,865.33c74.21-14.67,95.7,46,28,62.33-20.19,4.87-41.97,3.08-41.97,3.08,10.04,62.14-38.22,46.63-70.41.9-24.43-42.09-23.37-64.16-8.35-79.36,34.22-34.64,135.65-108.32,178.42-78.17,42.76,30.15-85.68,91.22-85.68,91.22Z"/>
  <path d="m408.61,843.8c-74.21-14.67-104.33,47.32-36.64,63.65,20.19,4.87,50.6,1.76,50.6,1.76-10.04,62.14,35.92,53.13,70.41.9,24.43-42.09,23.37-64.16,8.35-79.36-34.22-34.64-144.37-110.38-187.13-80.23-42.76,30.15,94.4,93.29,94.4,93.29Z"/>
  <path class="cls-8" d="m424.33,849.17c-61.79-12.22-100.33,37.92-43.96,51.52,16.81,4.06,51.87.69,51.87.69-12.06,58.19,29.91,44.25,58.63.75,20.34-35.05,19.46-53.43,6.96-66.09-28.5-28.85-122.03-97.69-157.64-72.59-35.61,25.1,84.14,85.73,84.14,85.73Z"/>
  <path class="cls-8" d="m633.97,871.84c61.79-12.22,103.93,34.98,47.56,48.58-16.81,4.06-54.39,1.34-54.39,1.34,12.06,58.19-29.91,44.25-58.63.75-20.34-35.05-19.46-53.43-6.96-66.09,28.5-28.85,122.03-97.69,157.64-72.59,35.61,25.1-85.22,88.01-85.22,88.01Z"/>
  <path class="cls-1" d="m497.3,874.86s8.68-34.25-16.38-36.94c-25.06-2.69-49.23,53.7-17.6,53.7,26.55,0,25.98-26.97,18.22-31.44s-16.14,5.19-13.15,12.35"/>
  <path class="cls-12" d="m864.9,412.18s-22.28-23.07-20.88,5.57c1.39,28.64,5.77,103.43-3.38,115.76-9.15,12.33-11.93,18.3,3.38,17.11,15.32-1.19,32.02,0,28.84-13.13-3.18-13.13-19.49-101.04-7.96-99.85,11.54,1.19,69.22,71.92,67.63,76.14s23.87-9.31,21.88-22.04c-1.99-12.73-47.34-29.44-89.51-79.56Z"/>
  <path class="cls-7" d="m1014.97,246.89l-35.8,81.15,8.35,2.98s2.69-12.83,7.46-10.74c0,0,81.9-73.84,78.47-73.99s-58.48.6-58.48.6Z"/>
  <path d="m360.08,252.7s-21.48-126.55-38.99-136.1l53.31-11.14s24.61,36.65,29.38,147.24h-43.7Z"/>
  <path d="m325.87,383.14s-11.54-43.74,33.81-46.53c26.26-3.19-11.93-82.75-6.76-86.33s56.09,1.24,56.09,1.24c0,0,40.58,79.91,6.76,87.07s-18.3,47.74-18.3,47.74"/>
  <path class="cls-1" d="m563.77,892.25s-8.68-34.25,16.38-36.94c25.06-2.69,49.23,53.7,17.6,53.7-26.55,0-25.98-26.97-18.22-31.44,7.76-4.48,16.14,5.19,13.15,12.35"/>
  <path class="cls-9" d="m332.19,377.29s33.29,8.82,43.83,1.47c0,0-.47-29.24,14.45-38.59s26.93-2.49,13.6-46.54c0,0-22.95,13.72-36.08,2.88,0,0,13.92,35.05-.4,41.15-14.32,6.09-42.76,7.34-35.4,39.63Z"/>
  <path class="cls-11" d="m412.67,294.03l7.06-3.13s10.67,29.92,3.43,38.49-22.53,6.71-29.54,19.24,0,30.13,0,30.13h-7.56s-3.75-33.86,14-39.53c17.75-5.67,20.59-14.57,12.61-45.2Z"/>
  <path class="cls-15" d="m356.34,254.55l43.01,3.97,4.43,32.37s-28.7,14.11-36.45,2.44l-11-38.79Z"/>
  <path class="cls-14" d="m404.43,257.01l.05-.04c1.89-1.26,4.45-.48,5.31,1.62,2.61,6.38,7.54,18.65,9.23,24.42.48,1.66-.3,3.42-1.85,4.19l-3,1.51c-2.15,1.08-4.72-.21-5.15-2.57-1.01-5.61-3-15.39-6.03-25.02-.48-1.54.09-3.21,1.43-4.1Z"/>
  <path class="cls-14" d="m328,117.98l42.41-5.75s34.95,75.15,24.78,139.68l-31.65-1.41s-5.56-71.42-35.54-132.53Z"/>
  <path class="cls-11" d="m995.68,328.35l-1.26,6.16c-.26,1.29.18,2.63,1.17,3.5l30.3,21.04c1.59,1.42,6.36-4.27,4.87-5.56l-24.43-15.36c-1.08-.93-1.53-2.41-1.14-3.79l.98-3.51c.57-2.03-.68-4.13-2.74-4.59l-3.3-.75c-2.02-.46-4.02.83-4.44,2.86Z"/>
  <path class="cls-16" d="m385.73,112.23s348.63-48.02,414.52-34.87c60.46,12.07,275.12,150.18,275.12,150.18l4.22,7.7s-243.62-145.15-277.72-151.3-416.14,28.29-416.14,28.29Z"/>
</svg>